<?xml version="1.0" encoding="UTF-8"?>
<svg width="20px" height="15px" viewBox="0 0 20 15" version="1.1" xmlns="http://www.w3.org/2000/svg" xmlns:xlink="http://www.w3.org/1999/xlink">
    <!-- Generator: Sketch 45 (43475) - http://www.bohemiancoding.com/sketch -->
    <title>email ico</title>
    <desc>Created with Sketch.</desc>
    <defs></defs>
    <g id="Symbols---import" stroke="none" stroke-width="1" fill="none" fill-rule="evenodd">
        <g id="Social/email-white" transform="translate(-5.000000, -7.000000)" fill="#FFFFFF">
            <path d="M24.0909258,11.836652 C23.7713232,12.1882148 23.409107,12.4971639 23.0255839,12.7634994 C21.2464631,13.9673356 19.4566888,15.1818253 17.7201816,16.4389287 C16.8252944,17.0994406 15.7173389,17.9091004 14.5561163,17.9091004 L14.5454629,17.9091004 L14.5348095,17.9091004 C13.3735869,17.9091004 12.2656314,17.0994406 11.3707442,16.4389287 C9.63423701,15.1711719 7.84446271,13.9673356 6.07599526,12.7634994 C5.68181878,12.4971639 5.31960255,12.1882148 5,11.836652 L5,20.2954662 C5,21.232967 5.76704613,22.0000131 6.70454694,22.0000131 L22.3863788,22.0000131 C23.3238797,22.0000131 24.0909258,21.232967 24.0909258,20.2954662 L24.0909258,11.836652 Z M22.3863788,7 L6.70454694,7 C5.56463118,7 5,7.89488715 5,8.93892215 C5,9.90838322 6.07599526,11.1122195 6.83238797,11.6235836 C8.48366782,12.7741528 10.1562545,13.924722 11.8075344,15.0859446 C12.5000066,15.5653484 13.6718826,16.5454629 14.5348095,16.5454629 C15.4190432,16.5454629 16.5909192,15.5653484 17.2833914,15.0859446 C18.9346713,13.924722 20.607258,12.7741528 22.2691912,11.6235836 C23.2066921,10.9737251 24.0909258,9.89772981 24.0909258,8.70454694 C24.0909258,7.76704613 23.3132262,7 22.3863788,7 Z" id="email-ico"></path>
        </g>
    </g>
</svg>