<?xml version="1.0" encoding="UTF-8"?>
<svg width="11px" height="21px" viewBox="0 0 11 21" version="1.1" xmlns="http://www.w3.org/2000/svg" xmlns:xlink="http://www.w3.org/1999/xlink">
    <!-- Generator: Sketch 45 (43475) - http://www.bohemiancoding.com/sketch -->
    <title>facebook ico</title>
    <desc>Created with Sketch.</desc>
    <defs></defs>
    <g id="Symbols---import" stroke="none" stroke-width="1" fill="none" fill-rule="evenodd">
        <g id="Social/facebook-icon" transform="translate(-9.000000, -4.000000)" fill="#FFFFFF">
            <path d="M16.3927002,7.73595385 C16.907549,7.73595385 17.6072152,7.82836261 18.174869,7.94717386 C18.3068815,7.97357636 18.4520953,7.94717386 18.5709065,7.86796636 C18.6897178,7.78875886 18.7689253,7.65674635 18.7821265,7.52473385 L19.1385603,4.95049003 C19.1649628,4.71286752 19.019749,4.46204376 18.7689253,4.39603751 C17.8448377,4.1320125 16.8415427,4 15.7986439,4 C12.6435451,4 11.1122001,5.50494254 11.1122001,8.62043763 L11.1122001,9.98016642 L9.50164751,9.98016642 C9.22442126,9.98016642 9,10.2045877 9,10.4818139 L9,13.122064 C9,13.4124915 9.22442126,13.6369128 9.50164751,13.6369128 L11.1122001,13.6369128 L11.1122001,23.7754731 C11.1122001,24.0526993 11.3366213,24.2771206 11.6138476,24.2771206 L14.9141602,24.2771206 C15.1781852,24.2771206 15.4026064,24.0526993 15.4026064,23.7754731 L15.4026064,13.6369128 L18.069259,13.6369128 C18.333284,13.6369128 18.544504,13.4256928 18.5709065,13.1616678 L18.755724,10.5214177 C18.7689253,10.3762039 18.7161203,10.2441914 18.6237115,10.1385814 C18.5313028,10.0329714 18.3992903,9.98016642 18.2672778,9.98016642 L15.4026064,9.98016642 L15.4026064,8.81845638 C15.4026064,7.94717386 15.4950152,7.73595385 16.3927002,7.73595385 L16.3927002,7.73595385 Z" id="facebook-ico"></path>
        </g>
    </g>
</svg>