<?xml version="1.0" encoding="UTF-8"?>
<svg width="20px" height="16px" viewBox="0 0 20 16" version="1.1" xmlns="http://www.w3.org/2000/svg" xmlns:xlink="http://www.w3.org/1999/xlink">
    <!-- Generator: Sketch 45 (43475) - http://www.bohemiancoding.com/sketch -->
    <title>twiiter ico</title>
    <desc>Created with Sketch.</desc>
    <defs></defs>
    <g id="Symbols---import" stroke="none" stroke-width="1" fill="none" fill-rule="evenodd">
        <g id="Social/twitter-icon" transform="translate(-5.000000, -6.000000)" fill="#FFFFFF">
            <path d="M24.5312675,8.14583525 C24.5312675,7.96875176 24.385434,7.81250162 24.1979338,7.81250162 C24.0937671,7.81250162 23.3750164,8.11458522 23.1875163,8.1666686 C23.4375165,7.87500168 24.0104337,6.98958422 24.0104337,6.61458388 C24.0104337,6.43750039 23.8646002,6.28125025 23.6771,6.28125025 C23.6250167,6.28125025 23.5625166,6.3020836 23.5104332,6.33333363 C22.8020992,6.71875064 22.1250153,7.02083425 21.3333479,7.18750106 C20.5520972,6.43750039 19.4895963,6 18.3958453,6 C16.0833432,6 14.1875082,7.88541835 14.1875082,10.2083371 C14.1875082,10.3750039 14.1979249,10.5520874 14.2291749,10.7187542 C11.9375062,10.5208374 9.76042092,9.56250319 8.05208606,8.03125182 C7.63541902,7.65625148 7.28125204,7.25000112 6.9062517,6.83333408 C6.8229183,6.73958399 6.75000156,6.70833397 6.62500145,6.70833397 C6.51041802,6.70833397 6.41666793,6.79166737 6.36458455,6.87500078 C5.98958422,7.42708461 5.79166737,8.32291874 5.79166737,8.98958601 C5.79166737,9.95833687 6.12500101,10.9062544 6.75000156,11.6562551 C6.55208472,11.593755 6.25000112,11.3958382 6.07291763,11.3958382 C5.85416743,11.3958382 5.66666726,11.5520883 5.66666726,11.7708385 C5.66666726,13.2291731 6.46875131,14.583341 7.69791908,15.3437584 C7.60416899,15.3333417 7.52083559,15.3020917 7.4270855,15.3020917 C7.25000201,15.3020917 7.10416855,15.4583418 7.10416855,15.6250086 C7.10416855,15.6666753 7.11458522,15.6979253 7.1250019,15.739592 C7.58333564,17.1458433 8.72917,18.2083442 10.1666713,18.5416779 C8.9895869,19.2708452 7.63541902,19.6458455 6.26041779,19.6458455 C5.94791751,19.6458455 5.63541723,19.5937622 5.33333363,19.5937622 C5.14583346,19.5937622 5,19.7500123 5,19.9270958 C5,20.0416792 5.06250006,20.1354293 5.15625014,20.208346 C5.42708372,20.4062629 5.76041735,20.5729297 6.06250095,20.7291798 C7.66666905,21.5625139 9.45833732,22.0000143 11.2708389,22.0000143 C15.8125097,22.0000143 19.6979298,19.5625121 21.5729315,15.4166751 C22.2500154,13.9270904 22.6458491,12.2916723 22.6145991,10.6562542 L22.6145991,10.3125039 C23.322933,9.78125338 24.0104337,9.09375277 24.4791841,8.33333542 C24.5104341,8.28125204 24.5312675,8.21875198 24.5312675,8.14583525 L24.5312675,8.14583525 Z" id="twiiter-ico"></path>
        </g>
    </g>
</svg>