<svg width="20" height="15" viewBox="0 0 20 15" xmlns="http://www.w3.org/2000/svg"><title>email ico</title><path d="M19.09 4.837c-.319.351-.68.66-1.064.926-1.78 1.204-3.57 2.419-5.306 3.676-.895.66-2.003 1.47-3.164 1.47H9.535c-1.161 0-2.27-.81-3.164-1.47C4.634 8.17 2.844 6.967 1.076 5.763A5.958 5.958 0 0 1 0 4.837v8.458A1.71 1.71 0 0 0 1.705 15h15.681a1.71 1.71 0 0 0 1.705-1.705V4.837zM17.387 0H1.705C.565 0 0 .895 0 1.939c0 .97 1.076 2.173 1.832 2.685 1.652 1.15 3.324 2.3 4.976 3.462.692.48 1.864 1.46 2.727 1.46.884 0 2.056-.98 2.748-1.46 1.652-1.161 3.324-2.312 4.986-3.462.938-.65 1.822-1.726 1.822-2.92C19.09.768 18.313 0 17.386 0z" fill="#FFF" fill-rule="evenodd"/></svg>