<svg width="11" height="21" viewBox="0 0 11 21" xmlns="http://www.w3.org/2000/svg"><title>facebook ico</title><path d="M7.393 3.736c.515 0 1.214.092 1.782.211.132.027.277 0 .396-.079a.482.482 0 0 0 .211-.343L10.14.95a.515.515 0 0 0-.37-.554A10.837 10.837 0 0 0 6.799 0C3.644 0 2.112 1.505 2.112 4.62v1.36H.502A.501.501 0 0 0 0 6.482v2.64c0 .29.224.515.502.515h1.61v10.138c0 .278.225.502.502.502h3.3a.499.499 0 0 0 .489-.502V9.637h2.666a.515.515 0 0 0 .502-.475l.185-2.64a.506.506 0 0 0-.132-.383.471.471 0 0 0-.357-.159H6.403V4.818c0-.87.092-1.082.99-1.082z" fill="#FFF" fill-rule="evenodd"/></svg>