<svg width="20" height="16" viewBox="0 0 20 16" xmlns="http://www.w3.org/2000/svg"><title>twiiter ico</title><path d="M19.531 2.146a.336.336 0 0 0-.333-.333c-.104 0-.823.302-1.01.354.25-.292.822-1.177.822-1.552a.336.336 0 0 0-.333-.334.346.346 0 0 0-.167.052c-.708.386-1.385.688-2.177.855A4.271 4.271 0 0 0 13.396 0a4.217 4.217 0 0 0-4.208 4.208c0 .167.01.344.041.51a10.666 10.666 0 0 1-6.177-2.687c-.417-.375-.77-.781-1.146-1.198a.327.327 0 0 0-.281-.125c-.115 0-.208.084-.26.167C.99 1.427.792 2.323.792 2.99c0 .968.333 1.916.958 2.666-.198-.062-.5-.26-.677-.26-.219 0-.406.156-.406.375 0 1.458.802 2.812 2.03 3.573-.093-.01-.176-.042-.27-.042a.332.332 0 0 0-.323.323c0 .042.01.073.021.115a4.197 4.197 0 0 0 3.042 2.802 7.412 7.412 0 0 1-3.907 1.104c-.312 0-.625-.052-.927-.052a.336.336 0 0 0-.333.333c0 .115.063.208.156.281.271.198.604.365.907.521A11.315 11.315 0 0 0 6.27 16c4.542 0 8.427-2.437 10.302-6.583.677-1.49 1.073-3.125 1.042-4.76v-.344c.708-.532 1.395-1.22 1.864-1.98a.36.36 0 0 0 .052-.187z" fill="#FFF" fill-rule="evenodd"/></svg>